<svg width="18" height="19" viewBox="0 0 18 19" fill="none" xmlns="http://www.w3.org/2000/svg">
<path d="M1 6.5C1 3.67157 1 2.25736 1.87868 1.37868C2.75736 0.5 4.17157 0.5 7 0.5H11C13.8284 0.5 15.2426 0.5 16.1213 1.37868C17 2.25736 17 3.67157 17 6.5V13.3276C17 16.0109 17 17.3525 16.1557 17.7629C15.3114 18.1733 14.2565 17.3444 12.1465 15.6866L11.4713 15.156C10.2849 14.2239 9.69173 13.7578 9 13.7578C8.30827 13.7578 7.71509 14.2239 6.52871 15.156L5.85346 15.6866C3.74355 17.3444 2.68859 18.1733 1.84429 17.7629C1 17.3525 1 16.0109 1 13.3276V6.5Z" stroke="#FFFEFD"/>
</svg>
