<svg width="120" height="120" viewBox="0 0 120 120" fill="none" xmlns="http://www.w3.org/2000/svg">
<path d="M120 60C120 26.8629 93.1371 0 60 0C26.8629 0 0 26.8629 0 60C0 93.1371 26.8629 120 60 120C93.1371 120 120 93.1371 120 60Z" fill="#F2F2F2"/>
<path d="M83.0769 40.8097C83.0769 53.5547 72.745 63.8866 60 63.8866C47.255 63.8866 36.9231 53.5547 36.9231 40.8097C36.9231 28.0647 47.255 17.7328 60 17.7328C72.745 17.7328 83.0769 28.0647 83.0769 40.8097Z" fill="#E0E0E0"/>
<path fill-rule="evenodd" clip-rule="evenodd" d="M11.7396 95.6567C19.4045 81.5905 38.0694 71.6599 59.8785 71.6599C81.7853 71.6599 100.52 81.6797 108.12 95.846C97.1806 110.507 79.6987 120 60 120C40.2165 120 22.6693 110.425 11.7396 95.6567Z" fill="#E0E0E0"/>
</svg>
