<svg width="17" height="16" viewBox="0 0 17 16" fill="none" xmlns="http://www.w3.org/2000/svg">
<path fill-rule="evenodd" clip-rule="evenodd" d="M8.51924 1.33335C5.44655 1.32291 2.93677 3.76755 2.83646 6.82755L2.83337 7.01748C2.88445 8.51736 3.39476 9.94711 4.29356 11.1251L4.50465 11.4005C5.36258 12.4914 6.38212 13.4489 7.52689 14.238L7.80252 14.4236L7.84274 14.4552C8.23511 14.7371 8.76488 14.7371 9.15725 14.4552L9.19073 14.4277C10.0991 13.8386 10.9367 13.1464 11.687 12.3648C13.2124 10.7501 14.1318 8.94081 14.1666 7.1033L14.1666 7.03508C14.177 3.95459 11.7399 1.43709 8.68935 1.33644L8.51924 1.33335ZM8.51581 2.34494C11.0348 2.35355 13.08 4.36624 13.156 6.8727L13.1581 7.0937C13.129 8.63425 12.3223 10.2216 10.9578 11.6661C10.262 12.3908 9.48187 13.035 8.63575 13.5829L8.57936 13.6253C8.53379 13.6649 8.4662 13.6649 8.42063 13.6253L8.36582 13.584C7.10536 12.761 5.99909 11.722 5.09762 10.5144C4.37149 9.56276 3.94121 8.42489 3.8546 7.23789L3.84188 6.99987C3.85043 4.47477 5.85692 2.42328 8.35567 2.34711L8.51581 2.34494ZM8.49999 4.93417C7.30773 4.93417 6.34121 5.90368 6.34121 7.09962C6.34121 8.29556 7.30773 9.26506 8.49999 9.26506C9.69225 9.26506 10.6588 8.29556 10.6588 7.09962C10.6588 5.90368 9.69225 4.93417 8.49999 4.93417ZM8.49999 5.94579C9.13527 5.94579 9.65027 6.46238 9.65027 7.09962C9.65027 7.73686 9.13527 8.25345 8.49999 8.25345C7.86471 8.25345 7.34971 7.73686 7.34971 7.09962C7.34971 6.46238 7.86471 5.94579 8.49999 5.94579Z" fill="#828282"/>
</svg>
