<svg width="32" height="16" viewBox="0 0 32 16" fill="none" xmlns="http://www.w3.org/2000/svg">
<path d="M1.33325 8.00002L0.979698 8.35357L0.626145 8.00002L0.979698 7.64646L1.33325 8.00002ZM22.6666 8.00002L22.6666 7.50002L22.6666 8.00002ZM31.3333 7.50002C31.6094 7.50002 31.8333 7.72388 31.8333 8.00002C31.8333 8.27616 31.6094 8.50002 31.3333 8.50002L31.3333 7.50002ZM7.64637 15.0202L0.979698 8.35357L1.6868 7.64646L8.35347 14.3131L7.64637 15.0202ZM0.979698 7.64646L7.64636 0.979797L8.35347 1.6869L1.6868 8.35357L0.979698 7.64646ZM1.33325 7.50002L22.6666 7.50002L22.6666 8.50002L1.33325 8.50002L1.33325 7.50002ZM22.6666 7.50002L31.3333 7.50002L31.3333 8.50002L22.6666 8.50002L22.6666 7.50002Z" fill="#333333"/>
</svg>
